<?xml version="1.0" encoding="UTF-8"?>
<svg id="Layer_1" xmlns="http://www.w3.org/2000/svg" version="1.1" viewBox="0 0 62 84">
  <!-- Generator: Adobe Illustrator 29.1.0, SVG Export Plug-In . SVG Version: 2.1.0 Build 142)  -->
  <defs>
    <style>
      .st0 {
        fill: #89cff0;
      }

      .st1 {
        fill: #7cbed8;
      }

      .st2 {
        fill: none;
        stroke: #000;
        stroke-miterlimit: 10;
        stroke-width: 5px;
      }
    </style>
  </defs>
  <path class="st0" d="M15.1,0h9.6C25.8,0,26.9.3,27.8.9c.6.5,1.2,1.2,1.3,2.1.3,2.2,0,5.1,0,5.1,0,0-.3.9-1.5,1,0,0,6.3,3.5,10.1,9.5,3,4.7,4.5,12-.5,13.8h-11.2s-1.2.2-1.8,1c-1,1.3-1.4,3.7,1.3,5,.3.2.7.2,1.1.2h11.7v7.6h-12.1s-1.3.3-2,1.4c-1,1.5-1.1,4.1,2.6,4.8h9.6c.6,0,1.1,0,1.7.3,1,.4,2.3,1.4,2.6,3.6v4.8h-10.1l-30.5.2v-4.8s0-1.6,1.8-3c.8-.6,1.7-.9,2.7-.9h3.7s1.1,0,2-1c1.1-1.1,1.6-3.8-2.1-5.2H2.5v-7.6h5.9s1.3,0,2.1-1.2c1-1.4,1.4-4.1-2.2-5.2H3.2c-1.6-.3-2.8-1.6-3.1-3.2-.8-4.4,1-12.2,12.3-20.1,0,0-1.1,0-1.3-1V3.3s-.2-1,.9-2.1C12.9.5,14,0,15.2,0h0Z"/>
  <ellipse class="st2" cx="32.9" cy="51.9" rx="21.2" ry="21.1"/>
  <path d="M47.1,64.9l4.7,4.6c.2.2.6.2.8,0h0c.2-.2.6-.2.8,0l8.1,8.1s0,0,0,.2c.3.9,2.3,7-5.7,6,0,0-.2,0-.3,0l-8.4-7.9c-.2-.2-.2-.5,0-.8h0c.2-.3.2-.6,0-.9l-4.9-4.9"/>
  <ellipse class="st2" cx="32.9" cy="51.8" rx="18.2" ry="17.9"/>
  <path class="st0" d="M36.1,47.9c.3,0,.3-.4,0-.4s-.3.4,0,.4h0Z"/>
  <path class="st0" d="M35.4,48.4c.3,0,.3-.4,0-.4s-.3.4,0,.4h0Z"/>
  <path class="st0" d="M35.6,49.3c.3,0,.3-.4,0-.4s-.3.4,0,.4h0Z"/>
  <path class="st0" d="M36.4,49.5c.3,0,.3-.4,0-.4s-.3.4,0,.4h0Z"/>
  <path class="st0" d="M37.1,49.1c.3,0,.3-.4,0-.4s-.3.4,0,.4h0Z"/>
  <path class="st0" d="M36.9,48.2c.3,0,.3-.4,0-.4s-.3.4,0,.4h0Z"/>
  <path class="st0" d="M32.1,50.2c.3,0,.3-.4,0-.4s-.3.4,0,.4h0Z"/>
  <path class="st0" d="M31.4,50.8c.3,0,.3-.4,0-.4s-.3.4,0,.4h0Z"/>
  <path class="st0" d="M31.6,51.6c.3,0,.3-.4,0-.4s-.3.4,0,.4h0Z"/>
  <path class="st0" d="M32.4,51.9c.3,0,.3-.4,0-.4s-.3.4,0,.4h0Z"/>
  <path class="st0" d="M33.1,51.4c.3,0,.3-.4,0-.4s-.3.4,0,.4h0Z"/>
  <path class="st0" d="M32.9,50.5c.3,0,.3-.4,0-.4s-.3.4,0,.4h0Z"/>
  <path class="st0" d="M27.7,47.9c.3,0,.3-.4,0-.4s-.3.4,0,.4h0Z"/>
  <path class="st0" d="M27,48.4c.3,0,.3-.4,0-.4s-.3.4,0,.4h0Z"/>
  <path class="st0" d="M27.2,49.3c.3,0,.3-.4,0-.4s-.3.4,0,.4h0Z"/>
  <path class="st0" d="M28,49.5c.3,0,.3-.4,0-.4s-.3.4,0,.4h0Z"/>
  <path class="st0" d="M28.7,49.1c.3,0,.3-.4,0-.4s-.3.4,0,.4h0Z"/>
  <path class="st0" d="M28.5,48.2c.3,0,.3-.4,0-.4s-.3.4,0,.4h0Z"/>
  <path class="st1" d="M10.2,15.8c.3,0,.3-.4,0-.4s-.3.4,0,.4h0Z"/>
</svg>